<svg width="22" height="22" viewBox="0 0 22 22" fill="none" xmlns="http://www.w3.org/2000/svg">
<g opacity="0.3">
<path d="M11.0007 2.0625C9.44848 2.06238 7.92301 2.46652 6.57446 3.23511C5.22591 4.00371 4.10078 5.11026 3.30985 6.44583C2.51891 7.7814 2.08944 9.29993 2.06373 10.8519C2.03801 12.4039 2.41693 13.9358 3.16318 15.2969L2.43271 17.8664C2.36401 18.1028 2.35965 18.3533 2.42008 18.592C2.4805 18.8307 2.60353 19.049 2.77646 19.2242C2.94938 19.398 3.16611 19.5217 3.40366 19.5822C3.6412 19.6427 3.8907 19.6378 4.12568 19.568L6.7038 18.8375C7.89858 19.4923 9.22726 19.8654 10.5883 19.928C11.9493 19.9907 13.3066 19.7414 14.5565 19.1991C15.8065 18.6569 16.9158 17.836 17.7999 16.7994C18.684 15.7627 19.3193 14.5376 19.6574 13.2177C19.9955 11.8979 20.0273 10.5182 19.7505 9.18414C19.4737 7.85009 18.8956 6.59699 18.0603 5.52062C17.225 4.44424 16.1546 3.57308 14.9311 2.97373C13.7075 2.37437 12.3631 2.06269 11.0007 2.0625ZM6.87568 12.0312C6.67172 12.0312 6.47234 11.9708 6.30275 11.8575C6.13316 11.7441 6.00098 11.5831 5.92293 11.3946C5.84488 11.2062 5.82445 10.9989 5.86424 10.7988C5.90404 10.5988 6.00225 10.415 6.14647 10.2708C6.2907 10.1266 6.47445 10.0284 6.67449 9.98856C6.87453 9.94877 7.08188 9.9692 7.27032 10.0472C7.45876 10.1253 7.61982 10.2575 7.73313 10.4271C7.84645 10.5967 7.90693 10.796 7.90693 11C7.90693 11.2735 7.79828 11.5358 7.60488 11.7292C7.41149 11.9226 7.14918 12.0312 6.87568 12.0312ZM11.0007 12.0312C10.7967 12.0312 10.5973 11.9708 10.4277 11.8575C10.2582 11.7441 10.126 11.5831 10.0479 11.3946C9.96987 11.2062 9.94945 10.9989 9.98924 10.7988C10.029 10.5988 10.1273 10.415 10.2715 10.2708C10.4157 10.1266 10.5994 10.0284 10.7995 9.98856C10.9995 9.94877 11.2069 9.9692 11.3953 10.0472C11.5838 10.1253 11.7448 10.2575 11.8581 10.4271C11.9714 10.5967 12.0319 10.796 12.0319 11C12.0319 11.2735 11.9233 11.5358 11.7299 11.7292C11.5365 11.9226 11.2742 12.0312 11.0007 12.0312ZM15.1257 12.0312C14.9217 12.0312 14.7223 11.9708 14.5527 11.8575C14.3832 11.7441 14.251 11.5831 14.1729 11.3946C14.0949 11.2062 14.0745 10.9989 14.1142 10.7988C14.154 10.5988 14.2523 10.415 14.3965 10.2708C14.5407 10.1266 14.7245 10.0284 14.9245 9.98856C15.1245 9.94877 15.3319 9.9692 15.5203 10.0472C15.7088 10.1253 15.8698 10.2575 15.9831 10.4271C16.0964 10.5967 16.1569 10.796 16.1569 11C16.1569 11.2735 16.0483 11.5358 15.8549 11.7292C15.6615 11.9226 15.3992 12.0312 15.1257 12.0312Z" fill="#777777"/>
</g>
</svg>
