<svg width="20" height="20" viewBox="0 0 20 20" fill="none" xmlns="http://www.w3.org/2000/svg">
<g clip-path="url(#clip0_193_43)">
<path d="M8.30703 15.3031C8.25146 15.2106 8.1729 15.1341 8.07898 15.081C7.98506 15.0279 7.87899 15 7.77109 15H3.125C2.95924 15 2.80027 14.9342 2.68306 14.8169C2.56585 14.6997 2.5 14.5408 2.5 14.375V4.375C2.5 4.20924 2.56585 4.05027 2.68306 3.93306C2.80027 3.81585 2.95924 3.75 3.125 3.75H16.875C17.0408 3.75 17.1997 3.81585 17.3169 3.93306C17.4342 4.05027 17.5 4.20924 17.5 4.375V14.375C17.5 14.5408 17.4342 14.6997 17.3169 14.8169C17.1997 14.9342 17.0408 15 16.875 15H12.2289C12.121 15 12.0149 15.0279 11.921 15.081C11.8271 15.1341 11.7485 15.2106 11.693 15.3031L10.5359 17.1969C10.4804 17.2894 10.4019 17.366 10.3079 17.4192C10.214 17.4724 10.1079 17.5003 10 17.5003C9.89207 17.5003 9.78598 17.4724 9.69206 17.4192C9.59814 17.366 9.51959 17.2894 9.46406 17.1969L8.30703 15.3031Z" stroke="white" stroke-width="1.6" stroke-linecap="round" stroke-linejoin="round"/>
<path d="M10 10.3125C10.5178 10.3125 10.9375 9.89277 10.9375 9.375C10.9375 8.85723 10.5178 8.4375 10 8.4375C9.48223 8.4375 9.0625 8.85723 9.0625 9.375C9.0625 9.89277 9.48223 10.3125 10 10.3125Z" fill="white"/>
<path d="M6.5625 10.3125C7.08027 10.3125 7.5 9.89277 7.5 9.375C7.5 8.85723 7.08027 8.4375 6.5625 8.4375C6.04473 8.4375 5.625 8.85723 5.625 9.375C5.625 9.89277 6.04473 10.3125 6.5625 10.3125Z" fill="white"/>
<path d="M13.4375 10.3125C13.9553 10.3125 14.375 9.89277 14.375 9.375C14.375 8.85723 13.9553 8.4375 13.4375 8.4375C12.9197 8.4375 12.5 8.85723 12.5 9.375C12.5 9.89277 12.9197 10.3125 13.4375 10.3125Z" fill="white"/>
</g>
<defs>
<clipPath id="clip0_193_43">
<rect width="20" height="20" fill="white"/>
</clipPath>
</defs>
</svg>
