<svg width="20" height="20" viewBox="0 0 20 20" fill="none" xmlns="http://www.w3.org/2000/svg">
<g clip-path="url(#clip0_193_61)">
<path d="M15.9375 8.75C17.1456 8.75 18.125 7.77062 18.125 6.5625C18.125 5.35438 17.1456 4.375 15.9375 4.375C14.7294 4.375 13.75 5.35438 13.75 6.5625C13.75 7.77062 14.7294 8.75 15.9375 8.75Z" stroke="white" stroke-width="1.6" stroke-linecap="round" stroke-linejoin="round"/>
<path d="M3.75 16.25H1.25C1.08424 16.25 0.925268 16.1842 0.808058 16.0669C0.690848 15.9497 0.625 15.7908 0.625 15.625V12.5C0.625 12.3342 0.690848 12.1753 0.808058 12.0581C0.925268 11.9408 1.08424 11.875 1.25 11.875H3.75" stroke="white" stroke-width="1.6" stroke-linecap="round" stroke-linejoin="round"/>
<path d="M8.75 12.5H11.25L16.4844 11.2961C16.6768 11.2434 16.8788 11.2357 17.0747 11.2738C17.2706 11.3118 17.4551 11.3945 17.6138 11.5154C17.7725 11.6363 17.9012 11.7922 17.9899 11.971C18.0785 12.1498 18.1248 12.3466 18.125 12.5461C18.1251 12.787 18.058 13.0232 17.9314 13.2281C17.8047 13.4331 17.6234 13.5986 17.4078 13.7063L14.375 15L9.375 16.25H3.75V11.875L5.70312 9.92188C5.8777 9.74791 6.08485 9.61007 6.31275 9.51623C6.54064 9.42239 6.78479 9.3744 7.03125 9.37501H10.9375C11.3519 9.37501 11.7493 9.53963 12.0424 9.83265C12.3354 10.1257 12.5 10.5231 12.5 10.9375C12.5 11.3519 12.3354 11.7493 12.0424 12.0424C11.7493 12.3354 11.3519 12.5 10.9375 12.5H8.75Z" stroke="white" stroke-width="1.6" stroke-linecap="round" stroke-linejoin="round"/>
<path d="M13.7497 6.66328C13.3252 6.86407 12.8472 6.9229 12.3867 6.83105C11.9261 6.73921 11.5073 6.50157 11.1922 6.15328C10.8772 5.80499 10.6826 5.36456 10.6372 4.8971C10.5918 4.42965 10.6981 3.96001 10.9403 3.55764C11.1825 3.15527 11.5478 2.84153 11.9821 2.66283C12.4164 2.48413 12.8967 2.44996 13.352 2.56537C13.8072 2.68077 14.2133 2.93963 14.51 3.30366C14.8067 3.66769 14.9784 4.11755 14.9997 4.58672" stroke="white" stroke-width="1.6" stroke-linecap="round" stroke-linejoin="round"/>
</g>
<defs>
<clipPath id="clip0_193_61">
<rect width="20" height="20" fill="white"/>
</clipPath>
</defs>
</svg>
