<svg width="20" height="20" viewBox="0 0 20 20" fill="none" xmlns="http://www.w3.org/2000/svg">
<g clip-path="url(#clip0_260_1428)">
<path d="M11.875 16.25V12.5C11.875 12.3342 11.8092 12.1753 11.6919 12.0581C11.5747 11.9408 11.4158 11.875 11.25 11.875H8.75C8.58424 11.875 8.42527 11.9408 8.30806 12.0581C8.19085 12.1753 8.125 12.3342 8.125 12.5V16.25C8.125 16.4158 8.05915 16.5747 7.94194 16.6919C7.82473 16.8091 7.66576 16.875 7.5 16.875H3.75C3.58424 16.875 3.42527 16.8091 3.30806 16.6919C3.19085 16.5747 3.125 16.4158 3.125 16.25V9.02656C3.12501 8.93946 3.14322 8.85333 3.17847 8.77368C3.21372 8.69403 3.26523 8.62263 3.32969 8.56406L9.57969 2.6625C9.69477 2.55775 9.84478 2.4997 10.0004 2.4997C10.156 2.4997 10.306 2.55775 10.4211 2.6625L16.6711 8.56406C16.7356 8.62263 16.7871 8.69403 16.8223 8.77368C16.8576 8.85333 16.8758 8.93946 16.8758 9.02656V16.25C16.8758 16.4158 16.8099 16.5747 16.6927 16.6919C16.5755 16.8091 16.4165 16.875 16.2508 16.875H12.5C12.3342 16.875 12.1753 16.8091 12.0581 16.6919C11.9408 16.5747 11.875 16.4158 11.875 16.25Z" stroke="white" stroke-width="1.6" stroke-linecap="round" stroke-linejoin="round"/>
</g>
<defs>
<clipPath id="clip0_260_1428">
<rect width="20" height="20" fill="white"/>
</clipPath>
</defs>
</svg>
