<svg xmlns="http://www.w3.org/2000/svg" xmlns:xlink="http://www.w3.org/1999/xlink" viewBox="0 0 48 48" width="48px" height="48px"><defs><linearGradient id="bmuiBuqU8CkQG0-wstPMib" x1="24" x2="24" y1="-13.11" y2="118.28" gradientUnits="userSpaceOnUse"><stop offset="0" stop-color="#fcfcfc"/><stop offset="1" stop-color="#c3c9cd"/></linearGradient><linearGradient id="bmuiBuqU8CkQG0-wstPMia" x1="25.28" x2="16.72" y1="20.2" y2="11.8" gradientUnits="userSpaceOnUse"><stop offset="0" stop-color="#33bef0"/><stop offset="1" stop-color="#22a5e2"/></linearGradient><linearGradient id="bmuiBuqU8CkQG0-wstPMic" x1="23.01" x2="15.99" y1="26.45" y2="19.55" xlink:href="#bmuiBuqU8CkQG0-wstPMia"/><linearGradient id="bmuiBuqU8CkQG0-wstPMid" x1="25.72" x2="15.66" y1="36.88" y2="27" xlink:href="#bmuiBuqU8CkQG0-wstPMia"/><linearGradient id="bmuiBuqU8CkQG0-wstPMie" x1="61.42" x2="53.61" y1="-41.1" y2="-48.77" gradientTransform="rotate(19.53 -149.399 -51.345) scale(.81 1)" gradientUnits="userSpaceOnUse"><stop offset="0" stop-color="#4c4c4c"/><stop offset="1" stop-color="#343434"/></linearGradient></defs><path fill="url(#bmuiBuqU8CkQG0-wstPMib)" d="m42,37c0,2.76-2.24,5-5,5H11c-2.76,0-5-2.24-5-5V11c0-2.76,2.24-5,5-5h26c2.76,0,5,2.24,5,5v26Z"/><line x1="14" x2="28" y1="16" y2="16" fill="none" stroke="url(#bmuiBuqU8CkQG0-wstPMia)" stroke-linecap="round" stroke-linejoin="round" stroke-width="2"/><line x1="14" x2="25" y1="23" y2="23" fill="none" stroke="url(#bmuiBuqU8CkQG0-wstPMic)" stroke-linecap="round" stroke-linejoin="round" stroke-width="2"/><path fill="none" stroke="url(#bmuiBuqU8CkQG0-wstPMid)" stroke-linecap="round" stroke-linejoin="round" stroke-width="2" d="m13.38,30.75s2.88-1.25,3.25-2.5c.75,3.5,2.12,5.75,5.25,6.75s6.12-1.88,6.12-1.88"/><path fill="url(#bmuiBuqU8CkQG0-wstPMie)" d="m29.56,27.07l.25,2.84c.08.84,1.09,1.22,1.69.63l2.13-2.08c.31-.3.54-.66.7-1.06l4.2-10.78c.5-1.28-.16-2.73-1.46-3.19h0c-1.24-.44-2.61.19-3.09,1.41l-4.24,10.87c-.17.43-.23.9-.19,1.36Z"/></svg>